<svg xmlns="http://www.w3.org/2000/svg" width="313" height="215" fill="none" viewBox="0 0 313 215"><circle cx="193.138" cy="61.918" r="45.167" fill="url(#paint0_linear)" opacity=".2" transform="rotate(90 193.138 61.9184)"/><path fill="#5E6294" fill-rule="evenodd" d="M136.752 61.9187C136.752 93.0595 161.997 118.304 193.138 118.304C224.279 118.304 249.523 93.0595 249.523 61.9187C249.523 30.7778 224.279 5.5332 193.138 5.5332C161.997 5.5332 136.752 30.7778 136.752 61.9187ZM147.97 61.9187C147.97 86.864 168.193 107.086 193.138 107.086C218.083 107.086 238.305 86.864 238.305 61.9187C238.305 36.9734 218.083 16.7513 193.138 16.7513C168.193 16.7513 147.97 36.9734 147.97 61.9187Z" clip-rule="evenodd" opacity=".14"/><path fill="#EF7B4D" d="M169.472 36.1085C172.148 29.9301 178.3 25.6076 185.462 25.6076C192.159 25.6076 197.973 29.3866 200.887 34.9284C216.197 34.5441 228.858 46.8541 228.858 62.2139C228.858 77.5737 216.197 89.8836 200.887 89.4994C197.973 95.0412 192.159 98.8202 185.462 98.8202C178.3 98.8202 172.148 94.4977 169.472 88.3193L142.677 87.3108C135.74 87.5996 135.165 89.6908 133.002 97.5586C132.793 98.3177 132.57 99.1307 132.324 100.001C130.843 93.5202 130.639 89.4493 131.412 86.8869L119.04 86.4213C107.345 85.3818 107.318 85.4861 105.264 93.3798C104.984 94.4531 104.668 95.6704 104.279 97.0484C100.394 80.0521 108.092 79.8309 115.054 79.6307C116.445 79.5908 117.806 79.5516 119.04 79.3798L119.04 78.7463C118.571 78.7083 118.116 78.6712 117.674 78.6353L117.663 78.6343C107.927 77.8414 104.585 77.5693 103.112 79.0979C102.342 79.8967 102.082 81.1871 101.686 83.1519C101.272 85.2062 100.71 87.9977 99.2603 91.7351C96.4697 71.6935 102.836 71.7088 113.674 71.7349C115.36 71.7389 117.155 71.7433 119.04 71.6724L119.04 71.0708C98.1465 70.1418 97.8817 71.2212 96.1382 78.3281C95.6645 80.2589 95.0817 82.6345 93.9465 85.5356C91.6772 65.1121 97.4811 64.2949 106.422 63.036C108.006 62.813 109.688 62.5761 111.441 62.2139C109.688 61.8517 108.006 61.6148 106.422 61.3918C97.4812 60.1329 91.6772 59.3156 93.9465 38.8921C95.0817 41.7932 95.6645 44.1689 96.1382 46.0997C97.8817 53.2066 98.1465 54.286 119.04 53.357L119.04 52.7554C117.155 52.6845 115.36 52.6888 113.674 52.6929C102.836 52.719 96.4697 52.7343 99.2603 32.6927C100.71 36.4301 101.272 39.2216 101.686 41.2759C102.082 43.2407 102.342 44.5311 103.112 45.3299C104.585 46.8585 107.927 46.5864 117.663 45.7935C118.108 45.7572 118.567 45.7198 119.04 45.6815L119.04 45.048C117.806 44.8762 116.445 44.837 115.054 44.7971C108.092 44.5969 100.394 44.3756 104.279 27.3794C104.668 28.7574 104.984 29.9747 105.264 31.048C107.318 38.9417 107.345 39.046 119.04 38.0065L131.412 37.5409C130.639 34.9785 130.843 30.9076 132.324 24.4268C132.57 25.2971 132.793 26.11 133.002 26.8692C135.165 34.737 135.74 36.8282 142.677 37.1169L169.472 36.1085Z"/><circle cx="185.167" cy="42.139" r="12.989" fill="#FEFEFE" transform="rotate(90 185.167 42.1392)"/><circle cx="187.234" cy="41.844" r="4.428" fill="#000" transform="rotate(90 187.234 41.8442)"/><circle cx="185.167" cy="80.517" r="12.989" fill="#FEFEFE" transform="rotate(90 185.167 80.5167)"/><circle cx="187.234" cy="80.222" r="4.428" fill="#000" transform="rotate(90 187.234 80.2216)"/><path fill="#FAFAFA" d="M160.96 52.1768C160.96 52.1768 156.236 56.9002 156.236 62.214C156.236 67.5278 160.96 72.2512 160.96 72.2512L155.055 72.2512C149.512 72.2512 145.018 67.7574 145.018 62.214C145.018 56.6706 149.512 52.1768 155.055 52.1768L160.96 52.1768Z"/><path fill="#202124" d="M156.236 52.1768C156.236 52.1768 151.513 56.9002 151.513 62.214C151.513 67.5278 156.236 72.2512 156.236 72.2512L155.055 72.2512C149.512 72.2512 145.018 67.7574 145.018 62.214C145.018 56.6706 149.512 52.1768 155.055 52.1768L156.236 52.1768Z"/><path stroke="#5E6294" stroke-linecap="round" stroke-width="3.543" d="M164.895 24.4161C172.696 18.5449 182.388 15.0481 192.902 15.0048C209.846 14.935 224.729 23.8516 233.037 37.2758" opacity=".16"/><circle cx="237.124" cy="43.32" r="2.362" fill="#5E6294" opacity=".45" transform="rotate(90 237.124 43.3202)"/><rect width="5.314" height="27.16" x="206.422" y=".219" fill="#5E6294" rx="2.362" transform="rotate(90 206.422 0.219238)"/><rect width="5.314" height="27.16" x="206.422" y="118.304" fill="#5E6294" rx="2.362" transform="rotate(90 206.422 118.304)"/><path fill="#5E6294" fill-opacity=".2" fill-rule="evenodd" d="M133.8 61.9187C133.8 94.6899 160.367 121.256 193.138 121.256C225.909 121.256 252.475 94.6899 252.475 61.9187C252.475 29.1474 225.909 2.58105 193.138 2.58105C160.367 2.58105 133.8 29.1474 133.8 61.9187ZM136.752 61.9186C136.752 93.0595 161.997 118.304 193.138 118.304C224.279 118.304 249.523 93.0595 249.523 61.9186C249.523 30.7778 224.279 5.53315 193.138 5.53315C161.997 5.53315 136.752 30.7778 136.752 61.9186Z" clip-rule="evenodd"/><path fill="#F77F4F" d="M215.52 55.9829C212.743 55.3895 210.904 52.978 211.413 50.5967C211.922 48.2154 214.145 46.6886 216.922 47.282C219.699 47.8754 222.649 51.5045 222.14 53.8858C221.631 56.2672 218.297 56.5763 215.52 55.9829Z"/><path fill="url(#paint1_linear)" d="M3.8994 130.075C73.1915 119.122 152.394 210.416 249.596 202.462C136.931 234.423 98.5267 141.25 3.8994 130.075Z"/><path fill="url(#paint2_linear)" d="M266.522 34.3993C302.437 99.397 252.045 140.419 219.63 150.955C276.071 166.885 323.796 89.9776 266.522 34.3993Z"/><path fill="url(#paint3_linear)" d="M302.853 102.168C258.911 260.123 75.569 47.173 3.96058 117.426C78.6431 97.3808 161.812 204.414 253.844 182.864C323.95 166.449 308.519 110.143 302.853 102.168Z"/><defs><linearGradient id="paint0_linear" x1="193.138" x2="219.069" y1="16.751" y2="105.86" gradientUnits="userSpaceOnUse"><stop stop-color="#5E6294"/><stop offset="1" stop-color="#878BB2"/></linearGradient><linearGradient id="paint1_linear" x1="32.095" x2="237.41" y1="114.44" y2="235.741" gradientUnits="userSpaceOnUse"><stop stop-color="#5C74C6"/><stop offset="1" stop-color="#5C74C6" stop-opacity="0"/></linearGradient><linearGradient id="paint2_linear" x1="260.244" x2="254.443" y1="34.096" y2="154.099" gradientUnits="userSpaceOnUse"><stop stop-color="#5C74C6"/><stop offset="1" stop-color="#5C74C6" stop-opacity="0"/></linearGradient><linearGradient id="paint3_linear" x1="314.816" x2="5.192" y1="116.328" y2="129.544" gradientUnits="userSpaceOnUse"><stop stop-color="#5C74C6"/><stop offset="1" stop-color="#5C74C6" stop-opacity="0"/></linearGradient></defs></svg>